<svg width="103" height="85" viewBox="0 0 103 85" fill="none" xmlns="http://www.w3.org/2000/svg">
<path d="M93.2104 25.7986C95.635 27.5492 96.2011 30.9478 94.475 33.3898L63.1114 77.7566C61.3852 80.1985 58.0202 80.759 55.5956 79.0087L27.8729 58.9948C25.4482 57.2444 24.882 53.8455 26.6083 51.4035L57.9723 7.03658C59.6985 4.59457 63.0635 4.034 65.4881 5.78456L93.2104 25.7986Z" fill="#B0D2D1" fill-opacity="0.4"/>
<path d="M74.5066 26.5743C76.8995 28.3679 77.4048 31.7762 75.6353 34.1868L43.4837 77.9861C41.7141 80.3967 38.3396 80.897 35.9465 79.1036L8.58629 58.5974C6.19325 56.804 5.68788 53.3956 7.45757 50.9848L39.6093 7.18549C41.3789 4.77471 44.7536 4.27436 47.1464 6.06797L74.5066 26.5743Z" fill="#213E76"/>
</svg>
